<?xml version="1.0" encoding="UTF-8"?>
<!DOCTYPE svg PUBLIC "-//W3C//DTD SVG 1.1//EN" "http://www.w3.org/Graphics/SVG/1.1/DTD/svg11.dtd">
<svg version="1.1" xmlns="http://www.w3.org/2000/svg" xmlns:xlink="http://www.w3.org/1999/xlink" x="0" y="0" width="230.9" height="178.776" viewBox="0, 0, 230.9, 178.776">
  <g id="Layer_1" transform="translate(-307.573, -341.759)">
    <g>
      <path d="M379.444,498.957 L399.22,435.847 L390.064,437.312 Q383.351,438.288 379.688,438.898 Q374.195,439.875 371.388,439.875 Q366.261,439.875 360.707,437.678 Q355.152,435.48 355.152,433.405 Q355.152,430.354 361.988,430.354 Q362.599,430.354 367.237,429.987 L377.369,429.011 L392.75,427.18 Q395.436,426.813 401.051,426.203 Q409.107,405.939 409.107,381.525 Q409.107,377.497 408.619,370.173 L398.731,370.295 Q387.867,370.295 377.979,367.915 Q368.092,365.534 368.092,362.849 Q368.092,360.651 375.294,360.651 Q389.82,360.651 421.559,353.938 L447.804,348.444 Q460.743,345.759 470.875,345.759 Q486.134,345.759 486.134,352.106 Q486.134,359.064 471.241,361.384 L451.222,364.68 Q448.17,365.168 428.883,367.609 L418.385,369.074 Q422.535,371.394 424.732,372.37 Q431.446,375.422 431.446,378.474 Q431.446,380.427 429.859,383.479 Q423.146,396.174 415.089,424.372 L430.714,421.687 Q438.893,420.222 450.733,414.24 Q454.029,412.653 456.104,412.653 Q461.354,412.653 469.776,417.902 Q478.199,423.151 478.199,426.447 Q478.199,427.546 476.124,429.743 Q462.94,443.171 453.785,491.145 L467.579,490.046 Q481.251,488.825 490.162,487.727 Q500.538,486.384 506.275,486.384 Q516.651,486.384 525.562,491.816 Q534.474,497.248 534.474,503.596 Q534.474,507.746 529.469,507.746 Q523.854,507.746 514.82,506.159 Q499.684,503.474 461.598,503.474 Q402.882,503.474 340.992,515.07 Q333.546,516.535 328.907,516.535 Q324.024,516.535 317.799,513.3 Q311.573,510.065 311.573,507.502 Q311.573,504.694 319.996,504.694 Q331.104,504.694 379.444,498.957 z M391.163,497.37 L440.846,492.487 Q444.264,474.177 446.705,462.946 Q448.536,455.256 449.024,452.204 Q450.978,439.753 451.954,437.189 Q453.175,434.138 453.175,431.818 Q453.175,427.79 450.245,427.79 Q449.879,427.79 448.78,428.278 Q447.682,428.767 441.334,429.743 L412.77,434.016 z" fill="#FFFFFF"/>
      <path d="M470.875,344.759 C481.548,344.759 487.134,347.083 487.134,352.106 C487.134,357.409 481.757,360.758 471.404,362.371 L451.38,365.667 C449.329,365.995 441.884,366.972 429.021,368.6 L421.534,369.644 C424.337,371.1 423.125,370.512 425.146,371.46 C429.951,373.644 432.446,375.912 432.446,378.474 C432.446,379.964 431.872,381.776 430.743,383.946 C424.495,396.385 420.351,409.779 416.493,423.116 L430.538,420.702 C435.881,419.745 442.468,417.295 450.299,413.339 C452.62,412.222 454.545,411.653 456.104,411.653 C459.829,411.653 464.546,413.464 470.305,417.054 C476.212,420.735 479.199,423.765 479.199,426.447 C479.199,427.522 478.404,428.786 476.837,430.444 C463.591,446.184 458.913,470.386 455.022,490.043 L467.49,489.05 C476.594,488.237 484.111,487.465 490.034,486.735 C496.99,485.835 502.4,485.384 506.275,485.384 C513.377,485.384 519.986,487.245 526.083,490.962 C532.292,494.747 535.474,498.953 535.474,503.596 C535.474,506.961 533.321,508.746 529.469,508.746 C525.659,508.746 520.722,508.211 514.646,507.144 C504.628,505.367 486.933,504.474 461.598,504.474 C422.517,504.474 382.376,508.333 341.185,516.052 C336.163,517.04 332.074,517.535 328.907,517.535 C325.474,517.535 321.62,516.413 317.338,514.188 C312.87,511.866 310.573,509.727 310.573,507.502 C310.573,504.78 313.831,503.694 319.996,503.694 C339.63,502.827 359.174,500.338 378.684,498.04 L397.782,437.089 L390.208,438.301 C385.739,438.951 382.286,439.479 379.863,439.883 C376.148,440.543 373.33,440.875 371.388,440.875 C367.839,440.875 364.154,440.117 360.339,438.608 C356.264,436.996 354.152,435.371 354.152,433.405 C354.152,430.598 356.94,429.354 361.988,429.353 C362.354,429.354 364.116,429.231 367.141,428.992 L377.251,428.018 L392.615,426.189 C395.18,425.843 397.754,425.561 400.326,425.277 C405.985,411.356 407.797,396.43 408.107,381.525 C408.092,378.075 407.904,374.627 407.682,371.184 L398.731,371.295 C391.411,371.295 384.415,370.492 377.745,368.887 C370.643,367.177 367.092,365.357 367.092,362.849 C367.092,360.512 369.914,359.651 375.294,359.651 C384.892,359.651 400.256,357.422 421.354,352.959 L447.6,347.465 C456.29,345.662 464.047,344.759 470.875,344.759 z M470.875,345.759 Q460.743,345.759 447.804,348.444 L421.559,353.938 Q389.82,360.651 375.294,360.651 Q368.092,360.651 368.092,362.849 Q368.092,365.534 377.979,367.914 Q387.867,370.295 398.731,370.295 L408.619,370.173 Q409.107,377.497 409.107,381.525 Q409.107,405.939 401.051,426.203 Q395.436,426.813 392.75,427.18 L377.369,429.011 L367.237,429.987 Q362.599,430.354 361.988,430.353 Q355.152,430.354 355.152,433.405 Q355.152,435.48 360.707,437.678 Q366.261,439.875 371.388,439.875 Q374.195,439.875 379.688,438.898 Q383.351,438.288 390.064,437.311 L399.22,435.847 L379.444,498.957 Q331.104,504.694 319.996,504.694 Q311.573,504.694 311.573,507.502 Q311.573,510.065 317.799,513.3 Q324.024,516.535 328.907,516.535 Q333.546,516.535 340.992,515.07 Q402.882,503.474 461.598,503.474 Q499.684,503.474 514.82,506.159 Q523.854,507.746 529.469,507.746 Q534.474,507.746 534.474,503.596 Q534.474,497.248 525.562,491.816 Q516.651,486.384 506.275,486.384 Q500.538,486.384 490.162,487.727 Q481.251,488.825 467.579,490.046 L453.785,491.145 Q462.94,443.171 476.124,429.743 Q478.199,427.546 478.199,426.447 Q478.199,423.151 469.776,417.902 Q461.354,412.653 456.104,412.653 Q454.029,412.653 450.733,414.24 Q438.893,420.222 430.714,421.686 L415.089,424.372 Q423.146,396.174 429.859,383.478 Q431.446,380.427 431.446,378.474 Q431.446,375.422 424.732,372.37 Q422.535,371.394 418.385,369.074 L428.883,367.609 Q448.17,365.168 451.222,364.68 L471.241,361.384 Q486.134,359.064 486.134,352.106 Q486.134,345.759 470.875,345.759 z M450.245,427.79 Q453.175,427.79 453.175,431.818 Q453.175,434.138 451.954,437.189 Q450.978,439.753 449.024,452.204 Q448.536,455.256 446.705,462.946 Q444.264,474.177 440.846,492.487 L391.163,497.37 L412.77,434.016 L441.334,429.743 Q447.682,428.767 448.78,428.278 Q449.879,427.79 450.245,427.79 z M450.245,428.79 C450.193,428.79 449.786,428.926 449.186,429.192 C448.333,429.571 445.841,430.062 441.482,430.732 L413.52,434.914 L392.611,496.223 L440.001,491.565 C441.795,481.926 443.677,472.302 445.732,462.715 C446.947,457.611 447.717,454.049 448.036,452.049 C449.352,443.662 450.333,438.637 451.026,436.818 C451.796,434.893 452.175,433.224 452.175,431.818 C452.175,429.629 451.565,428.79 450.245,428.79 z" fill="#000000"/>
    </g>
  </g>
</svg>
