<?xml version="1.0" encoding="UTF-8"?>
<!DOCTYPE svg PUBLIC "-//W3C//DTD SVG 1.1//EN" "http://www.w3.org/Graphics/SVG/1.1/DTD/svg11.dtd">
<svg version="1.1" xmlns="http://www.w3.org/2000/svg" xmlns:xlink="http://www.w3.org/1999/xlink" x="0" y="0" width="207.463" height="163.273" viewBox="0, 0, 207.463, 163.273">
  <g id="Layer_1" transform="translate(-41.414, -379.074)">
    <g>
      <path d="M79.594,510.882 Q79.594,522.845 74.467,522.845 Q68.729,522.845 64.091,476.214 Q58.842,421.771 49.931,410.174 Q45.414,404.314 45.414,402.239 Q45.414,398.089 50.419,398.089 Q52.494,398.089 55.424,399.065 Q62.504,401.629 71.049,401.629 Q75.199,401.629 79.228,401.141 L179.081,389.666 Q194.218,387.835 208.012,384.173 Q212.162,383.074 214.604,383.074 Q220.585,383.074 232.731,390.948 Q244.877,398.821 244.877,402.605 Q244.877,404.437 242.313,407.488 Q233.646,417.376 231.938,434.344 Q227.787,476.336 218.083,507.342 Q208.378,538.348 199.345,538.348 Q194.218,538.348 191.898,525.896 Q188.969,510.76 186.894,506.976 Q184.818,503.191 179.203,503.191 Q172.978,503.191 162.235,504.046 L127.934,506.976 L90.336,509.783 Q88.261,509.905 79.594,510.882 z M70.072,410.54 Q73.612,429.827 76.298,466.937 Q78.251,492.327 79.35,503.68 L91.557,502.215 L120.487,498.553 Q135.502,496.6 152.348,494.646 L171.269,492.327 Q174.32,491.961 175.541,491.961 Q191.044,491.961 196.171,502.581 Q197.758,505.633 198.124,505.633 Q202.274,505.633 208.439,468.707 Q214.604,431.78 214.604,406.634 Q214.604,395.892 207.035,395.892 L193.729,397.234 L150.883,401.385 Q166.508,407.732 166.508,412.493 Q166.508,414.08 165.531,416.644 Q162.602,424.7 162.602,433.123 Q162.602,446.673 163.761,449.664 Q164.921,452.654 170.17,452.654 Q183.72,452.654 190.678,450.823 Q193.241,450.213 194.584,450.213 Q204.105,450.213 204.105,458.88 Q204.105,466.326 171.146,466.326 Q158.939,466.326 154.362,461.26 Q149.784,456.194 149.784,442.889 Q149.784,415.423 147.343,401.873 L115.238,405.535 Q127.201,412.371 127.201,417.498 Q127.201,418.475 126.347,420.672 Q124.638,424.944 121.952,435.198 Q113.651,466.57 99.003,476.702 L91.557,481.707 Q88.505,483.782 85.697,483.782 Q83.134,483.782 83.134,482.317 Q83.134,481.951 84.354,480.73 Q108.891,458.392 108.891,419.695 Q108.891,415.423 108.158,406.634 z" fill="#FFFFFF"/>
      <path d="M214.604,382.074 C218.839,382.074 225.026,384.761 233.275,390.109 C241.693,395.566 245.877,399.581 245.877,402.605 C245.877,404.122 244.927,405.932 243.065,408.147 C237.435,414.571 234.052,423.327 232.933,434.442 C230.159,462.501 225.528,486.9 219.037,507.64 C212.424,528.768 206.031,539.348 199.345,539.348 C195.253,539.348 192.543,534.816 190.917,526.086 C188.985,516.105 187.331,509.853 186.017,507.456 C184.825,505.283 182.607,504.191 179.203,504.191 C175.083,504.191 169.452,504.475 162.32,505.042 L128.008,507.973 L90.395,510.781 C87.116,511.035 83.848,511.412 80.581,511.778 C80.488,516.096 80.16,523.452 74.467,523.845 C69.705,523.845 66.303,508.556 63.095,476.31 C59.616,440.221 54.916,418.303 49.139,410.784 C45.982,406.689 44.414,403.935 44.414,402.239 C44.414,398.874 46.567,397.089 50.419,397.089 C51.922,397.089 53.693,397.434 55.764,398.125 C60.371,399.793 65.465,400.629 71.049,400.629 C73.776,400.629 76.462,400.469 79.113,400.147 L178.961,388.673 C189.007,387.458 198.605,385.636 207.756,383.206 C210.599,382.454 212.875,382.074 214.604,382.074 z M214.604,383.074 Q212.162,383.074 208.012,384.173 Q194.218,387.835 179.081,389.666 L79.228,401.141 Q75.199,401.629 71.049,401.629 Q62.504,401.629 55.424,399.065 Q52.494,398.089 50.419,398.089 Q45.414,398.089 45.414,402.239 Q45.414,404.314 49.931,410.174 Q58.842,421.771 64.091,476.214 Q68.729,522.845 74.467,522.845 Q79.594,522.845 79.594,510.882 Q88.261,509.905 90.336,509.783 L127.934,506.975 L162.235,504.046 Q172.978,503.191 179.203,503.191 Q184.818,503.191 186.893,506.975 Q188.969,510.76 191.898,525.896 Q194.218,538.348 199.345,538.348 Q208.378,538.348 218.083,507.342 Q227.787,476.336 231.937,434.344 Q233.646,417.376 242.313,407.488 Q244.877,404.437 244.877,402.605 Q244.877,398.821 232.731,390.948 Q220.585,383.074 214.604,383.074 z M207.035,395.892 Q214.604,395.892 214.604,406.634 Q214.604,431.78 208.439,468.707 Q202.274,505.633 198.124,505.633 Q197.758,505.633 196.171,502.581 Q191.044,491.961 175.541,491.961 Q174.32,491.961 171.268,492.327 L152.348,494.646 Q135.502,496.6 120.487,498.553 L91.557,502.215 L79.35,503.68 Q78.251,492.327 76.298,466.936 Q73.612,429.827 70.072,410.54 L108.158,406.634 Q108.891,415.423 108.891,419.695 Q108.891,458.392 84.354,480.73 Q83.134,481.951 83.134,482.317 Q83.134,483.782 85.697,483.782 Q88.505,483.782 91.557,481.707 L99.003,476.702 Q113.651,466.57 121.952,435.198 Q124.638,424.944 126.347,420.672 Q127.201,418.475 127.201,417.498 Q127.201,412.371 115.238,405.535 L147.343,401.873 Q149.784,415.423 149.784,442.889 Q149.784,456.194 154.362,461.26 Q158.939,466.326 171.146,466.326 Q204.105,466.326 204.105,458.88 Q204.105,450.213 194.584,450.213 Q193.241,450.213 190.678,450.823 Q183.72,452.654 170.17,452.654 Q164.921,452.654 163.761,449.664 Q162.602,446.673 162.602,433.123 Q162.602,424.7 165.531,416.643 Q166.508,414.08 166.508,412.493 Q166.508,407.732 150.883,401.385 L193.729,397.234 L207.035,395.892 z M207.07,396.893 L193.826,398.23 L154.843,402.006 C158.968,404.064 167.017,407.02 167.508,412.493 C167.508,413.693 167.156,415.187 166.471,416.985 C164.558,422.247 163.602,427.625 163.602,433.123 C163.602,442.009 163.985,447.474 164.693,449.302 C165.289,450.838 167.039,451.654 170.17,451.654 C179.125,451.654 185.884,451.051 190.446,449.85 C192.225,449.427 193.595,449.213 194.584,449.213 C201.464,449.213 205.105,452.528 205.105,458.88 C205.105,464.781 193.839,467.326 171.146,467.326 C162.753,467.326 156.899,465.559 153.62,461.931 C150.365,458.329 148.784,451.984 148.784,442.889 C148.579,429.588 148.741,416.138 146.515,402.974 L118.278,406.195 C122.496,408.821 127.494,412.168 128.201,417.498 C128.201,418.307 127.89,419.461 127.275,421.043 C126.155,423.843 124.7,428.653 122.919,435.454 C117.33,456.577 109.572,470.608 99.561,477.532 L92.119,482.534 C89.929,484.023 87.786,484.782 85.697,484.782 C83.509,484.782 82.134,483.996 82.134,482.317 C82.134,481.674 82.591,481.08 83.681,479.991 C99.821,465.297 107.891,445.223 107.891,419.695 C107.858,415.701 107.565,411.713 107.244,407.733 L71.244,411.425 C74.375,429.759 75.919,448.325 77.295,466.86 C78.24,478.764 79.113,490.676 80.248,502.565 L91.431,501.223 L120.358,497.561 C130.373,496.258 140.998,494.956 152.226,493.654 L171.149,491.334 C173.221,491.086 174.676,490.961 175.541,490.961 C186.232,490.961 193.47,494.687 197.058,502.12 C197.574,503.113 197.989,503.852 198.295,504.331 L198.407,504.497 C200.215,502.056 200.968,499.008 201.815,496.132 C203.522,490.019 205.403,480.818 207.453,468.542 C211.554,443.975 213.604,423.337 213.604,406.634 C213.578,401.904 212.638,397.144 207.07,396.893 z" fill="#000000"/>
    </g>
  </g>
</svg>
