<?xml version="1.0" encoding="UTF-8"?>
<!DOCTYPE svg PUBLIC "-//W3C//DTD SVG 1.1//EN" "http://www.w3.org/Graphics/SVG/1.1/DTD/svg11.dtd">
<svg version="1.1" xmlns="http://www.w3.org/2000/svg" xmlns:xlink="http://www.w3.org/1999/xlink" x="0" y="0" width="210.148" height="40.227" viewBox="0, 0, 210.148, 40.227">
  <g id="Layer_1" transform="translate(-36.531, -139.893)">
    <g>
      <path d="M195.805,162.569 Q134.159,162.569 84.477,173.678 Q73.612,176.119 67.631,176.119 Q60.185,176.119 50.358,171.542 Q40.531,166.964 40.531,163.424 Q40.531,160.25 47.245,160.25 L59.452,159.884 L75.199,159.273 Q85.819,159.273 115.971,156.344 L150.272,152.926 Q180.912,149.874 192.753,147.433 Q209.354,143.893 217.289,143.893 Q225.346,143.893 234.013,149.874 Q242.68,155.855 242.68,161.471 Q242.68,165.255 237.431,165.255 Q235.233,165.255 231.205,164.522 Q219.853,162.569 195.805,162.569 z" fill="#FFFFFF"/>
      <path d="M217.289,142.893 C222.879,142.893 228.646,144.955 234.581,149.051 C240.602,153.206 243.68,157.325 243.68,161.471 C243.68,164.629 241.425,166.255 237.431,166.255 C235.895,166.255 233.766,166.004 231.036,165.508 C223.536,164.218 211.784,163.569 195.805,163.569 C154.778,163.569 117.741,167.265 84.696,174.653 C77.387,176.296 71.706,177.119 67.631,177.119 C62.505,177.119 56.609,175.557 49.936,172.448 C43.031,169.232 39.531,166.34 39.531,163.424 C39.531,160.551 42.284,159.25 47.215,159.25 L59.413,158.885 L75.199,158.273 C82.237,158.273 95.805,157.298 115.871,155.349 L150.173,151.931 C170.567,149.899 184.701,148.072 192.544,146.455 C203.675,144.081 211.913,142.893 217.289,142.893 z M217.289,143.893 Q209.354,143.893 192.753,147.433 Q180.912,149.874 150.272,152.926 L115.971,156.344 Q85.819,159.273 75.199,159.273 L59.452,159.884 L47.245,160.25 Q40.531,160.25 40.531,163.424 Q40.531,166.964 50.358,171.542 Q60.185,176.119 67.631,176.119 Q73.612,176.119 84.477,173.678 Q134.159,162.569 195.805,162.569 Q219.853,162.569 231.205,164.522 Q235.233,165.255 237.431,165.255 Q242.68,165.255 242.68,161.471 Q242.68,155.855 234.013,149.874 Q225.346,143.893 217.289,143.893 z" fill="#000000"/>
    </g>
  </g>
</svg>
