<?xml version="1.0" encoding="UTF-8"?>
<!DOCTYPE svg PUBLIC "-//W3C//DTD SVG 1.1//EN" "http://www.w3.org/Graphics/SVG/1.1/DTD/svg11.dtd">
<svg version="1.1" xmlns="http://www.w3.org/2000/svg" xmlns:xlink="http://www.w3.org/1999/xlink" x="0" y="0" width="223.21" height="161.069" viewBox="0, 0, 223.21, 161.069">
  <g id="Layer_1" transform="translate(-626.928, -83.194)">
    <g>
      <path d="M682.563,221.952 L759.834,211.942 L772.407,210.478 Q802.681,206.571 818.428,206.571 Q828.682,206.571 837.41,212.187 Q846.138,217.802 846.138,224.394 Q846.138,229.887 839.668,229.887 Q834.175,229.887 818.306,226.347 Q809.517,224.394 792.549,224.394 Q763.252,224.394 726.387,227.812 Q689.521,231.229 675.728,235.136 L663.276,238.798 Q658.027,240.263 654.487,240.263 Q647.407,240.263 638.862,233.915 L633.613,230.009 Q630.928,228.056 630.928,227.323 Q630.928,224.882 640.327,224.882 Q643.867,224.882 647.041,224.638 L668.647,223.051 Q680.122,222.196 682.563,221.952 z M779.121,87.309 Q796.943,86.332 796.943,93.656 Q796.943,100.492 766.182,107.328 Q735.42,114.164 704.658,114.164 Q697.822,114.164 690.132,110.99 Q682.441,107.816 682.93,105.253 Q683.296,103.544 691.963,103.544 Q712.593,103.544 738.228,96.586 Q770.576,87.797 779.121,87.309 z M779.121,163.603 Q767.769,163.603 751.533,166.044 Q716.011,171.293 711.25,171.293 Q706.611,171.293 697.212,168.302 Q687.812,165.312 687.812,163.725 Q687.812,162.016 705.513,160.185 Q719.551,158.842 742.256,153.227 Q761.909,148.344 769.233,148.344 Q775.947,148.344 782.417,151.945 Q788.887,155.546 789.131,159.452 Q789.375,163.603 780.952,163.603 z" fill="#FFFFFF"/>
      <path d="M818.428,205.571 C825.456,205.571 831.971,207.499 837.951,211.346 C844.028,215.255 847.138,219.605 847.138,224.393 C847.138,228.648 844.5,230.887 839.668,230.887 C835.908,230.887 828.738,229.699 818.089,227.323 C812.314,226.04 803.794,225.394 792.549,225.393 C773.05,225.394 751.027,226.531 726.479,228.807 C701.96,231.081 685.12,233.515 676.01,236.095 L663.545,239.761 C659.965,240.76 656.95,241.263 654.487,241.263 C649.525,241.263 644.121,239.067 638.265,234.717 L633.025,230.818 C630.908,229.278 629.928,228.298 629.928,227.323 C629.928,224.788 633.416,223.882 640.327,223.882 C642.662,223.882 644.875,223.801 646.968,223.64 L668.573,222.053 C673.199,221.689 677.831,221.391 682.451,220.958 L759.718,210.949 L772.279,209.486 C792.5,206.877 807.878,205.571 818.428,205.571 z M818.428,206.571 Q802.681,206.571 772.407,210.477 L759.834,211.942 L682.563,221.952 Q680.122,222.196 668.647,223.051 L647.041,224.638 Q643.867,224.882 640.327,224.882 Q630.928,224.882 630.928,227.323 Q630.928,228.056 633.613,230.009 L638.862,233.915 Q647.407,240.263 654.487,240.263 Q658.027,240.263 663.276,238.798 L675.727,235.136 Q689.521,231.229 726.387,227.811 Q763.252,224.394 792.549,224.393 Q809.517,224.394 818.306,226.347 Q834.175,229.887 839.668,229.887 Q846.138,229.887 846.138,224.393 Q846.138,217.802 837.41,212.186 Q828.682,206.571 818.428,206.571 z M769.233,147.344 C773.884,147.344 778.445,148.59 782.903,151.071 C787.483,153.62 789.94,156.367 790.129,159.393 C790.338,162.943 787.068,164.603 780.952,164.602 L779.121,164.602 C771.608,164.603 762.46,165.412 751.679,167.033 C727.907,170.546 714.5,172.293 711.25,172.293 C708.031,172.293 703.265,171.278 696.909,169.255 C689.944,167.039 686.812,165.514 686.812,163.725 C686.812,161.628 692.14,160.563 705.417,159.189 C714.72,158.299 726.923,155.989 742.015,152.256 C755.194,148.982 764.244,147.344 769.233,147.344 z M769.233,148.344 Q761.909,148.344 742.256,153.227 Q719.551,158.842 705.513,160.184 Q687.812,162.016 687.812,163.725 Q687.812,165.312 697.212,168.302 Q706.611,171.293 711.25,171.293 Q716.011,171.293 751.533,166.044 Q767.769,163.603 779.121,163.602 L780.952,163.602 Q789.375,163.603 789.131,159.452 Q788.887,155.546 782.417,151.945 Q775.947,148.344 769.233,148.344 z M781.322,86.218 C786.978,86.242 797.372,85.865 797.943,93.656 C797.943,98.975 787.508,103.613 766.398,108.304 C745.82,112.877 725.239,115.164 704.658,115.164 C699.963,115.164 694.993,114.078 689.75,111.915 C684.174,109.613 681.489,107.474 681.952,105.043 C682.359,103.143 685.526,102.544 691.963,102.544 C705.621,102.544 720.956,100.238 737.965,95.621 C759.607,89.741 773.27,86.641 779.064,86.31 L779.066,86.31 L781.322,86.218 z M781.279,87.219 L779.121,87.309 Q770.576,87.797 738.227,96.586 Q712.593,103.544 691.963,103.544 Q683.296,103.544 682.93,105.253 Q682.441,107.816 690.132,110.99 Q697.822,114.164 704.658,114.164 Q735.42,114.164 766.182,107.328 Q796.943,100.492 796.943,93.656 C796.386,86.694 786.198,87.238 781.279,87.219 z" fill="#000000"/>
    </g>
  </g>
</svg>
