<?xml version="1.0" encoding="UTF-8"?>
<!DOCTYPE svg PUBLIC "-//W3C//DTD SVG 1.1//EN" "http://www.w3.org/Graphics/SVG/1.1/DTD/svg11.dtd">
<svg version="1.1" xmlns="http://www.w3.org/2000/svg" xmlns:xlink="http://www.w3.org/1999/xlink" x="0" y="0" width="222.478" height="137.761" viewBox="0, 0, 222.478, 137.761">
  <g id="Layer_1" transform="translate(-316.479, -114.502)">
    <g>
      <path d="M502.12,215.792 Q513.473,215.792 524.215,220.98 Q534.957,226.168 534.957,231.783 Q534.957,237.398 526.778,237.398 Q523.971,237.398 520.187,237.032 Q489.913,234.103 472.823,234.103 Q445.357,234.103 406.844,238.192 Q368.331,242.281 350.387,247.042 Q345.748,248.263 343.307,248.263 Q339.034,248.263 329.757,242.953 Q320.479,237.643 320.479,235.079 Q320.479,232.638 328.902,232.638 L334.151,232.76 L340.377,232.76 Q382.979,232.76 476.729,218.478 Q494.186,215.792 502.12,215.792 z M469.039,118.502 Q476.485,118.502 482.833,121.249 Q489.181,123.995 489.181,127.291 Q489.181,131.563 468.062,133.272 L435.47,137.423 L406.539,139.986 Q400.191,140.597 397.75,140.597 Q392.379,140.597 382.247,137.179 Q372.115,133.761 371.993,131.93 Q371.871,130.343 382.369,130.343 Q397.262,130.343 426.681,125.216 L461.227,119.112 Q464.522,118.502 469.039,118.502 z" fill="#FFFFFF"/>
      <path d="M502.12,214.792 C509.841,214.792 517.354,216.556 524.65,220.079 C532.122,223.688 535.957,227.545 535.957,231.783 C535.957,236.176 532.721,238.398 526.778,238.398 C524.872,238.398 522.643,238.275 520.09,238.027 C499.937,236.077 484.179,235.103 472.823,235.102 C454.551,235.103 432.593,236.464 406.95,239.186 C381.321,241.908 362.546,244.851 350.641,248.009 C347.473,248.843 345.038,249.263 343.307,249.263 C340.233,249.263 335.588,247.442 329.26,243.82 C322.703,240.067 319.479,237.332 319.479,235.079 C319.479,232.568 322.689,231.638 328.926,231.638 L334.151,231.76 L340.377,231.76 C368.716,231.76 414.125,227.003 476.577,217.489 C488.261,215.692 496.767,214.792 502.12,214.792 z M502.12,215.792 Q494.186,215.792 476.729,218.477 Q382.979,232.76 340.377,232.76 L334.151,232.76 L328.902,232.638 Q320.479,232.638 320.479,235.079 Q320.479,237.643 329.757,242.953 Q339.034,248.263 343.307,248.263 Q345.748,248.263 350.387,247.042 Q368.331,242.281 406.844,238.192 Q445.357,234.103 472.823,234.102 Q489.913,234.103 520.187,237.032 Q523.971,237.398 526.778,237.398 Q534.957,237.398 534.957,231.783 Q534.957,226.168 524.215,220.98 Q513.473,215.792 502.12,215.792 z M469.039,117.502 C474.137,117.502 478.871,118.444 483.23,120.331 C487.79,122.304 490.181,124.579 490.181,127.291 C490.181,131.025 482.959,133.07 468.189,134.264 L435.558,138.419 L406.635,140.982 C402.373,141.392 399.419,141.597 397.75,141.597 C394.038,141.597 388.776,140.437 381.927,138.126 C374.57,135.644 371.121,133.879 370.996,132.006 C370.832,129.867 374.262,129.343 382.369,129.343 C392.228,129.343 406.948,127.64 426.507,124.231 L461.044,118.129 C463.307,117.71 465.971,117.502 469.039,117.502 z M469.039,118.502 Q464.522,118.502 461.227,119.112 L426.681,125.216 Q397.262,130.343 382.369,130.343 Q371.871,130.343 371.993,131.93 Q372.115,133.761 382.247,137.179 Q392.379,140.597 397.75,140.597 Q400.191,140.597 406.539,139.986 L435.47,137.423 L468.062,133.272 Q489.181,131.563 489.181,127.291 Q489.181,123.995 482.833,121.248 Q476.485,118.502 469.039,118.502 z" fill="#000000"/>
    </g>
  </g>
</svg>
